<?xml version="1.0" encoding="UTF-8"?>
<!DOCTYPE svg PUBLIC "-//W3C//DTD SVG 1.1//EN" "http://www.w3.org/Graphics/SVG/1.1/DTD/svg11.dtd">
<!-- Creator: CorelDRAW -->
<svg xmlns="http://www.w3.org/2000/svg" xml:space="preserve" width="210mm" height="297mm" style="shape-rendering:geometricPrecision; text-rendering:geometricPrecision; image-rendering:optimizeQuality; fill-rule:evenodd; clip-rule:evenodd"
viewBox="0 0 210 297"
 xmlns:xlink="http://www.w3.org/1999/xlink">
 <defs>
  <style type="text/css">
   <![CDATA[
    .str0 {stroke:#1F1A17;stroke-width:0.2}
    .fil0 {fill:#1F1A17}
   ]]>
  </style>
 </defs>
 <g id="Layer_x0020_1">
  <metadata id="CorelCorpID_0Corel-Layer"/>
  <path class="fil0 str0" d="M10.2377 9.5787c-0.6594,-0.3297 -1.2342,-0.721 -0.81,-2.191 0.3441,0.0794 0.1967,0.5823 0.5318,0.472 0.7289,-0.2399 -0.7092,-0.9843 0.8455,-2.3892 -0.4224,3.0069 2.4479,1.3232 0.334,3.9812 0.0497,-0.502 0.1402,-0.607 -0.2177,-0.8983 -0.1951,0.3787 -0.5023,0.6178 -0.6749,0 -0.2045,0.2595 -0.0954,0.6313 -0.0087,1.0253z"/>
  <g id="_42753920">
   <g>
    <path id="_42754712" class="fil0 str0" d="M9.198 4.1365c0.5485,0 1.0501,0.201 1.4352,0.5333 -0.0479,0.0314 -0.0945,0.0648 -0.1396,0.0999 -0.3536,-0.2755 -0.7981,-0.4396 -1.2809,-0.4396 -1.1517,0 -2.0859,0.9341 -2.0859,2.086 0,0.4657 0.1528,0.8958 0.4108,1.2431 -0.0151,0.0204 -0.0299,0.041 -0.0443,0.062 -0.3081,-0.3784 -0.493,-0.861 -0.493,-1.3868 0,-1.2138 0.9843,-2.1979 2.1977,-2.1979z"/>
    <path id="_42754640" class="fil0 str0" d="M11.8966 4.1365c1.2138,0 2.1981,0.9841 2.1981,2.1979 0,0.5596 -0.2093,1.0702 -0.5539,1.4582 -0.0287,-0.0457 -0.0591,-0.0902 -0.0913,-0.1334 0.258,-0.3472 0.4108,-0.7774 0.4108,-1.2431 0,-1.1519 -0.9342,-2.086 -2.0862,-2.086 -0.4827,0 -0.927,0.1641 -1.2805,0.4395 -0.0258,-0.0201 -0.0519,-0.0394 -0.0786,-0.0583 0.3908,-0.357 0.9109,-0.5748 1.4816,-0.5748z"/>
   </g>
   <g>
    <path id="_42754784" class="fil0 str0" d="M7.5376 7.6592c-0.258,0.3471 -0.4108,0.7773 -0.4108,1.2431 0,1.1518 0.9342,2.086 2.0859,2.086 0.4827,0 0.9272,-0.1641 1.2808,-0.4395 0.0388,0.0301 0.0786,0.0591 0.1195,0.0866 -0.3823,0.322 -0.876,0.5162 -1.415,0.5162 -1.2134,0 -2.1977,-0.9843 -2.1977,-2.1979 0,-0.5194 0.1805,-0.9967 0.4818,-1.3729 0.0179,0.0266 0.0365,0.0527 0.0555,0.0784z"/>
    <path id="_42754352" class="fil0 str0" d="M13.5519 7.5079c0.338,0.3864 0.5428,0.8922 0.5428,1.4458 0,1.2136 -0.9843,2.1979 -2.1981,2.1979 -0.5617,0 -1.0743,-0.2111 -1.4629,-0.558 0.0203,-0.0146 0.0402,-0.0295 0.0599,-0.0448 0.3534,0.2754 0.7978,0.4395 1.2805,0.4395 1.152,0 2.0862,-0.9342 2.0862,-2.086 0,-0.4658 -0.1527,-0.896 -0.4108,-1.2431 0.0363,-0.0489 0.0704,-0.0994 0.1024,-0.1513z"/>
   </g>
  </g>
 </g>
</svg>
